<?xml version="1.0" encoding="UTF-8" standalone="no"?>
<!DOCTYPE svg PUBLIC "-//W3C//DTD SVG 1.1//EN"
 "http://www.w3.org/Graphics/SVG/1.1/DTD/svg11.dtd">
<!-- Generated by graphviz version 2.38.0 (20140413.2041)
 -->
<!-- Title: G Pages: 1 -->
<svg width="346pt" height="1292pt"
 viewBox="0.00 0.00 346.00 1292.00" xmlns="http://www.w3.org/2000/svg" xmlns:xlink="http://www.w3.org/1999/xlink">
<g id="graph0" class="graph" transform="scale(1 1) rotate(0) translate(4 1288)">
<title>G</title>
<polygon fill="white" stroke="none" points="-4,4 -4,-1288 342,-1288 342,4 -4,4"/>
<g id="clust1" class="cluster"><title>cluster_Global</title>
<path fill="none" stroke="gray" d="M20,-8C20,-8 318,-8 318,-8 324,-8 330,-14 330,-20 330,-20 330,-1264 330,-1264 330,-1270 324,-1276 318,-1276 318,-1276 20,-1276 20,-1276 14,-1276 8,-1270 8,-1264 8,-1264 8,-20 8,-20 8,-14 14,-8 20,-8"/>
<text text-anchor="middle" x="169" y="-1263.2" font-family="Times New Roman,serif" font-size="11.00" fill="gray">Global</text>
</g>
<g id="clust2" class="cluster"><title>cluster_\doq</title>
<path fill="none" stroke="gray" d="M28,-16C28,-16 310,-16 310,-16 316,-16 322,-22 322,-28 322,-28 322,-1236 322,-1236 322,-1242 316,-1248 310,-1248 310,-1248 28,-1248 28,-1248 22,-1248 16,-1242 16,-1236 16,-1236 16,-28 16,-28 16,-22 22,-16 28,-16"/>
<text text-anchor="middle" x="169" y="-1235.2" font-family="Times New Roman,serif" font-size="11.00" fill="gray">doq</text>
</g>
<g id="clust3" class="cluster"><title>cluster_\doq\elements</title>
<path fill="none" stroke="gray" d="M209,-986C209,-986 285,-986 285,-986 291,-986 297,-992 297,-998 297,-998 297,-1208 297,-1208 297,-1214 291,-1220 285,-1220 285,-1220 209,-1220 209,-1220 203,-1220 197,-1214 197,-1208 197,-1208 197,-998 197,-998 197,-992 203,-986 209,-986"/>
<text text-anchor="middle" x="247" y="-1207.2" font-family="Times New Roman,serif" font-size="11.00" fill="gray">elements</text>
</g>
<g id="clust4" class="cluster"><title>cluster_\doq\data</title>
<path fill="none" stroke="gray" d="M36,-474C36,-474 293,-474 293,-474 299,-474 305,-480 305,-486 305,-486 305,-966 305,-966 305,-972 299,-978 293,-978 293,-978 36,-978 36,-978 30,-978 24,-972 24,-966 24,-966 24,-486 24,-486 24,-480 30,-474 36,-474"/>
<text text-anchor="middle" x="164.5" y="-965.2" font-family="Times New Roman,serif" font-size="11.00" fill="gray">data</text>
</g>
<g id="clust5" class="cluster"><title>cluster_\doq\data\mysql</title>
<path fill="none" stroke="gray" d="M209,-770C209,-770 285,-770 285,-770 291,-770 297,-776 297,-782 297,-782 297,-938 297,-938 297,-944 291,-950 285,-950 285,-950 209,-950 209,-950 203,-950 197,-944 197,-938 197,-938 197,-782 197,-782 197,-776 203,-770 209,-770"/>
<text text-anchor="middle" x="247" y="-937.2" font-family="Times New Roman,serif" font-size="11.00" fill="gray">mysql</text>
</g>
<g id="clust6" class="cluster"><title>cluster_\doq\data\memory</title>
<path fill="none" stroke="gray" d="M219,-690C219,-690 275,-690 275,-690 281,-690 287,-696 287,-702 287,-702 287,-750 287,-750 287,-756 281,-762 275,-762 275,-762 219,-762 219,-762 213,-762 207,-756 207,-750 207,-750 207,-702 207,-702 207,-696 213,-690 219,-690"/>
<text text-anchor="middle" x="247" y="-749.2" font-family="Times New Roman,serif" font-size="11.00" fill="gray">memory</text>
</g>
<g id="clust7" class="cluster"><title>cluster_\doq\cache</title>
<path fill="none" stroke="gray" d="M192,-394C192,-394 302,-394 302,-394 308,-394 314,-400 314,-406 314,-406 314,-454 314,-454 314,-460 308,-466 302,-466 302,-466 192,-466 192,-466 186,-466 180,-460 180,-454 180,-454 180,-406 180,-406 180,-400 186,-394 192,-394"/>
<text text-anchor="middle" x="247" y="-453.2" font-family="Times New Roman,serif" font-size="11.00" fill="gray">cache</text>
</g>
<!-- \\doq\\elements\\Field -->
<g id="node1" class="node"><title>\\doq\\elements\\Field</title>
<polygon fill="none" stroke="black" points="274,-1192 220,-1192 220,-1156 274,-1156 274,-1192"/>
<text text-anchor="middle" x="247" y="-1171.2" font-family="Courier,monospace" font-size="11.00">Field</text>
</g>
<!-- \\doq\\elements\\Form -->
<g id="node2" class="node"><title>\\doq\\elements\\Form</title>
<polygon fill="none" stroke="black" points="274,-1138 220,-1138 220,-1102 274,-1102 274,-1138"/>
<text text-anchor="middle" x="247" y="-1117.2" font-family="Courier,monospace" font-size="11.00">Form</text>
</g>
<!-- \\doq\\elements\\InputField -->
<g id="node3" class="node"><title>\\doq\\elements\\InputField</title>
<polygon fill="none" stroke="black" points="289,-1084 205,-1084 205,-1048 289,-1048 289,-1084"/>
<text text-anchor="middle" x="247" y="-1063.2" font-family="Courier,monospace" font-size="11.00">InputField</text>
</g>
<!-- \\doq\\elements\\DataGrid -->
<g id="node4" class="node"><title>\\doq\\elements\\DataGrid</title>
<polygon fill="none" stroke="black" points="282.5,-1030 211.5,-1030 211.5,-994 282.5,-994 282.5,-1030"/>
<text text-anchor="middle" x="247" y="-1009.2" font-family="Courier,monospace" font-size="11.00">DataGrid</text>
</g>
<!-- \\doq\\data\\mysql\\Connection -->
<g id="node5" class="node"><title>\\doq\\data\\mysql\\Connection</title>
<polygon fill="none" stroke="black" points="289,-868 205,-868 205,-832 289,-832 289,-868"/>
<text text-anchor="middle" x="247" y="-847.2" font-family="Courier,monospace" font-size="11.00">Connection</text>
</g>
<!-- \\doq\\data\\Connection -->
<g id="node14" class="node"><title>\\doq\\data\\Connection</title>
<polygon fill="none" stroke="black" points="116,-868 32,-868 32,-832 116,-832 116,-868"/>
<text text-anchor="start" x="40" y="-853.2" font-family="Courier,monospace" font-size="11.00">«abstract»</text>
<text text-anchor="start" x="40" y="-841.2" font-family="Courier,monospace" font-size="11.00">Connection</text>
</g>
<!-- \\doq\\data\\mysql\\Connection&#45;&gt;\\doq\\data\\Connection -->
<g id="edge2" class="edge"><title>\\doq\\data\\mysql\\Connection&#45;&gt;\\doq\\data\\Connection</title>
<path fill="none" stroke="black" d="M204.606,-850C180.976,-850 151.157,-850 126.08,-850"/>
<polygon fill="none" stroke="black" points="126.013,-846.5 116.013,-850 126.013,-853.5 126.013,-846.5"/>
</g>
<!-- \\doq\\data\\mysql\\Dataset -->
<g id="node6" class="node"><title>\\doq\\data\\mysql\\Dataset</title>
<polygon fill="none" stroke="black" points="279,-814 215,-814 215,-778 279,-778 279,-814"/>
<text text-anchor="middle" x="247" y="-793.2" font-family="Courier,monospace" font-size="11.00">Dataset</text>
</g>
<!-- \\doq\\data\\Dataset -->
<g id="node13" class="node"><title>\\doq\\data\\Dataset</title>
<polygon fill="none" stroke="black" points="116,-774 32,-774 32,-738 116,-738 116,-774"/>
<text text-anchor="start" x="40" y="-759.2" font-family="Courier,monospace" font-size="11.00">«abstract»</text>
<text text-anchor="start" x="50" y="-747.2" font-family="Courier,monospace" font-size="11.00">Dataset</text>
</g>
<!-- \\doq\\data\\mysql\\Dataset&#45;&gt;\\doq\\data\\Dataset -->
<g id="edge3" class="edge"><title>\\doq\\data\\mysql\\Dataset&#45;&gt;\\doq\\data\\Dataset</title>
<path fill="none" stroke="black" d="M214.636,-788.663C189.882,-782.873 154.845,-774.677 126.06,-767.944"/>
<polygon fill="none" stroke="black" points="126.701,-764.499 116.166,-765.63 125.106,-771.315 126.701,-764.499"/>
</g>
<!-- \\doq\\data\\mysql\\Scripter -->
<g id="node7" class="node"><title>\\doq\\data\\mysql\\Scripter</title>
<polygon fill="none" stroke="black" points="282.5,-922 211.5,-922 211.5,-886 282.5,-886 282.5,-922"/>
<text text-anchor="middle" x="247" y="-901.2" font-family="Courier,monospace" font-size="11.00">Scripter</text>
</g>
<!-- \\doq\\data\\Scripter -->
<g id="node11" class="node"><title>\\doq\\data\\Scripter</title>
<polygon fill="none" stroke="black" points="109.5,-922 38.5,-922 38.5,-886 109.5,-886 109.5,-922"/>
<text text-anchor="middle" x="74" y="-901.2" font-family="Courier,monospace" font-size="11.00">Scripter</text>
</g>
<!-- \\doq\\data\\mysql\\Scripter&#45;&gt;\\doq\\data\\Scripter -->
<g id="edge4" class="edge"><title>\\doq\\data\\mysql\\Scripter&#45;&gt;\\doq\\data\\Scripter</title>
<path fill="none" stroke="black" d="M211.396,-904C184.973,-904 148.354,-904 119.711,-904"/>
<polygon fill="none" stroke="black" points="119.553,-900.5 109.553,-904 119.553,-907.5 119.553,-900.5"/>
</g>
<!-- \\doq\\data\\memory\\Dataset -->
<g id="node8" class="node"><title>\\doq\\data\\memory\\Dataset</title>
<polygon fill="none" stroke="black" points="279,-734 215,-734 215,-698 279,-698 279,-734"/>
<text text-anchor="middle" x="247" y="-713.2" font-family="Courier,monospace" font-size="11.00">Dataset</text>
</g>
<!-- \\doq\\data\\memory\\Dataset&#45;&gt;\\doq\\data\\Dataset -->
<g id="edge7" class="edge"><title>\\doq\\data\\memory\\Dataset&#45;&gt;\\doq\\data\\Dataset</title>
<path fill="none" stroke="black" d="M214.636,-723.337C189.882,-729.127 154.845,-737.323 126.06,-744.056"/>
<polygon fill="none" stroke="black" points="125.106,-740.685 116.166,-746.37 126.701,-747.501 125.106,-740.685"/>
</g>
<!-- \\doq\\data\\Connections -->
<g id="node9" class="node"><title>\\doq\\data\\Connections</title>
<polygon fill="none" stroke="black" points="292.5,-680 201.5,-680 201.5,-644 292.5,-644 292.5,-680"/>
<text text-anchor="middle" x="247" y="-659.2" font-family="Courier,monospace" font-size="11.00">Connections</text>
</g>
<!-- \\doq\\data\\ScopeStack -->
<g id="node10" class="node"><title>\\doq\\data\\ScopeStack</title>
<polygon fill="none" stroke="black" points="289,-626 205,-626 205,-590 289,-590 289,-626"/>
<text text-anchor="middle" x="247" y="-605.2" font-family="Courier,monospace" font-size="11.00">ScopeStack</text>
</g>
<!-- \\doq\\data\\Datanode -->
<g id="node12" class="node"><title>\\doq\\data\\Datanode</title>
<polygon fill="none" stroke="black" points="282.5,-572 211.5,-572 211.5,-536 282.5,-536 282.5,-572"/>
<text text-anchor="middle" x="247" y="-551.2" font-family="Courier,monospace" font-size="11.00">Datanode</text>
</g>
<!-- \\doq\\data\\View -->
<g id="node15" class="node"><title>\\doq\\data\\View</title>
<polygon fill="none" stroke="black" points="274,-518 220,-518 220,-482 274,-482 274,-518"/>
<text text-anchor="middle" x="247" y="-497.2" font-family="Courier,monospace" font-size="11.00">View</text>
</g>
<!-- \\doq\\cache\\SerialFileCache -->
<g id="node16" class="node"><title>\\doq\\cache\\SerialFileCache</title>
<polygon fill="none" stroke="black" points="306,-438 188,-438 188,-402 306,-402 306,-438"/>
<text text-anchor="middle" x="247" y="-417.2" font-family="Courier,monospace" font-size="11.00">SerialFileCache</text>
</g>
<!-- \\doq\\Cache -->
<g id="node19" class="node"><title>\\doq\\Cache</title>
<polygon fill="none" stroke="black" points="116,-438 32,-438 32,-402 116,-402 116,-438"/>
<text text-anchor="start" x="40" y="-423.2" font-family="Courier,monospace" font-size="11.00">«abstract»</text>
<text text-anchor="start" x="57" y="-411.2" font-family="Courier,monospace" font-size="11.00">Cache</text>
</g>
<!-- \\doq\\cache\\SerialFileCache&#45;&gt;\\doq\\Cache -->
<g id="edge1" class="edge"><title>\\doq\\cache\\SerialFileCache&#45;&gt;\\doq\\Cache</title>
<path fill="none" stroke="black" d="M187.63,-420C167.701,-420 145.578,-420 126.251,-420"/>
<polygon fill="none" stroke="black" points="126.131,-416.5 116.131,-420 126.131,-423.5 126.131,-416.5"/>
</g>
<!-- \\doq\\Template -->
<g id="node17" class="node"><title>\\doq\\Template</title>
<polygon fill="none" stroke="black" points="282.5,-384 211.5,-384 211.5,-348 282.5,-348 282.5,-384"/>
<text text-anchor="middle" x="247" y="-363.2" font-family="Courier,monospace" font-size="11.00">Template</text>
</g>
<!-- \\doq\\Render -->
<g id="node18" class="node"><title>\\doq\\Render</title>
<polygon fill="none" stroke="black" points="275.5,-330 218.5,-330 218.5,-294 275.5,-294 275.5,-330"/>
<text text-anchor="middle" x="247" y="-309.2" font-family="Courier,monospace" font-size="11.00">Render</text>
</g>
<!-- \\doq\\Session -->
<g id="node20" class="node"><title>\\doq\\Session</title>
<polygon fill="none" stroke="black" points="279,-276 215,-276 215,-240 279,-240 279,-276"/>
<text text-anchor="middle" x="247" y="-255.2" font-family="Courier,monospace" font-size="11.00">Session</text>
</g>
<!-- \\doq\\Logger -->
<g id="node21" class="node"><title>\\doq\\Logger</title>
<polygon fill="none" stroke="black" points="116,-195 32,-195 32,-159 116,-159 116,-195"/>
<text text-anchor="start" x="40" y="-180.2" font-family="Courier,monospace" font-size="11.00">«abstract»</text>
<text text-anchor="start" x="53.5" y="-168.2" font-family="Courier,monospace" font-size="11.00">Logger</text>
</g>
<!-- \\doq\\HTMLEndLogger -->
<g id="node22" class="node"><title>\\doq\\HTMLEndLogger</title>
<polygon fill="none" stroke="black" points="299,-222 195,-222 195,-186 299,-186 299,-222"/>
<text text-anchor="middle" x="247" y="-201.2" font-family="Courier,monospace" font-size="11.00">HTMLEndLogger</text>
</g>
<!-- \\doq\\HTMLEndLogger&#45;&gt;\\doq\\Logger -->
<g id="edge5" class="edge"><title>\\doq\\HTMLEndLogger&#45;&gt;\\doq\\Logger</title>
<path fill="none" stroke="black" d="M194.694,-195.899C173.038,-192.48 147.877,-188.507 126.229,-185.089"/>
<polygon fill="none" stroke="black" points="126.659,-181.613 116.236,-183.511 125.568,-188.528 126.659,-181.613"/>
</g>
<!-- \\doq\\FileLogger -->
<g id="node23" class="node"><title>\\doq\\FileLogger</title>
<polygon fill="none" stroke="black" points="289,-168 205,-168 205,-132 289,-132 289,-168"/>
<text text-anchor="middle" x="247" y="-147.2" font-family="Courier,monospace" font-size="11.00">FileLogger</text>
</g>
<!-- \\doq\\FileLogger&#45;&gt;\\doq\\Logger -->
<g id="edge6" class="edge"><title>\\doq\\FileLogger&#45;&gt;\\doq\\Logger</title>
<path fill="none" stroke="black" d="M204.606,-156.536C180.976,-160.267 151.157,-164.975 126.08,-168.935"/>
<polygon fill="none" stroke="black" points="125.345,-165.507 116.013,-170.524 126.437,-172.422 125.345,-165.507"/>
</g>
<!-- \\doq\\I18n -->
<g id="node24" class="node"><title>\\doq\\I18n</title>
<polygon fill="none" stroke="black" points="274,-114 220,-114 220,-78 274,-78 274,-114"/>
<text text-anchor="middle" x="247" y="-93.2" font-family="Courier,monospace" font-size="11.00">I18n</text>
</g>
<!-- \\doq\\Auth -->
<g id="node25" class="node"><title>\\doq\\Auth</title>
<polygon fill="none" stroke="black" points="274,-60 220,-60 220,-24 274,-24 274,-60"/>
<text text-anchor="middle" x="247" y="-39.2" font-family="Courier,monospace" font-size="11.00">Auth</text>
</g>
</g>
</svg>
